<mxfile host="65bd71144e">
    <diagram id="1wm72ONf0sYd8lprhmsN" name="Page-1">
        <mxGraphModel dx="799" dy="390" grid="1" gridSize="10" guides="1" tooltips="1" connect="1" arrows="1" fold="1" page="1" pageScale="1" pageWidth="690" pageHeight="980" math="0" shadow="0">
            <root>
                <mxCell id="0"/>
                <mxCell id="1" parent="0"/>
                <mxCell id="23" value="" style="group" vertex="1" connectable="0" parent="1">
                    <mxGeometry x="65" y="60" width="330" height="310" as="geometry"/>
                </mxCell>
                <mxCell id="2" value="" style="rounded=1;whiteSpace=wrap;html=1;sketch=1;hachureGap=4;jiggle=2;curveFitting=1;fontFamily=Architects Daughter;fontSource=https%3A%2F%2Ffonts.googleapis.com%2Fcss%3Ffamily%3DArchitects%2BDaughter;fontSize=20;" vertex="1" parent="23">
                    <mxGeometry width="330" height="310" as="geometry"/>
                </mxCell>
                <mxCell id="3" value="worker Node" style="text;html=1;strokeColor=none;fillColor=none;align=center;verticalAlign=middle;whiteSpace=wrap;rounded=0;sketch=1;hachureGap=4;jiggle=2;curveFitting=1;fontFamily=Architects Daughter;fontSource=https%3A%2F%2Ffonts.googleapis.com%2Fcss%3Ffamily%3DArchitects%2BDaughter;fontSize=20;" vertex="1" parent="23">
                    <mxGeometry x="84" width="130" height="30" as="geometry"/>
                </mxCell>
                <mxCell id="13" value="container runtime" style="rounded=1;whiteSpace=wrap;html=1;sketch=1;hachureGap=4;jiggle=2;curveFitting=1;fontFamily=Architects Daughter;fontSource=https%3A%2F%2Ffonts.googleapis.com%2Fcss%3Ffamily%3DArchitects%2BDaughter;fontSize=20;" vertex="1" parent="23">
                    <mxGeometry x="35" y="270" width="260" height="30" as="geometry"/>
                </mxCell>
                <mxCell id="14" value="" style="group" vertex="1" connectable="0" parent="23">
                    <mxGeometry x="15" y="110" width="120" height="120" as="geometry"/>
                </mxCell>
                <mxCell id="4" value="" style="whiteSpace=wrap;html=1;aspect=fixed;sketch=1;hachureGap=4;jiggle=2;curveFitting=1;fontFamily=Architects Daughter;fontSource=https%3A%2F%2Ffonts.googleapis.com%2Fcss%3Ffamily%3DArchitects%2BDaughter;fontSize=20;" vertex="1" parent="14">
                    <mxGeometry width="120" height="120" as="geometry"/>
                </mxCell>
                <mxCell id="5" value="Pod" style="text;html=1;strokeColor=none;fillColor=none;align=center;verticalAlign=middle;whiteSpace=wrap;rounded=0;sketch=1;hachureGap=4;jiggle=2;curveFitting=1;fontFamily=Architects Daughter;fontSource=https%3A%2F%2Ffonts.googleapis.com%2Fcss%3Ffamily%3DArchitects%2BDaughter;fontSize=20;" vertex="1" parent="14">
                    <mxGeometry x="30" width="60" height="30" as="geometry"/>
                </mxCell>
                <mxCell id="8" value="container" style="rounded=1;whiteSpace=wrap;html=1;sketch=1;hachureGap=4;jiggle=2;curveFitting=1;fontFamily=Architects Daughter;fontSource=https%3A%2F%2Ffonts.googleapis.com%2Fcss%3Ffamily%3DArchitects%2BDaughter;fontSize=20;" vertex="1" parent="14">
                    <mxGeometry x="10" y="30" width="100" height="20" as="geometry"/>
                </mxCell>
                <mxCell id="9" value="container" style="rounded=1;whiteSpace=wrap;html=1;sketch=1;hachureGap=4;jiggle=2;curveFitting=1;fontFamily=Architects Daughter;fontSource=https%3A%2F%2Ffonts.googleapis.com%2Fcss%3Ffamily%3DArchitects%2BDaughter;fontSize=20;" vertex="1" parent="14">
                    <mxGeometry x="10" y="60" width="100" height="20" as="geometry"/>
                </mxCell>
                <mxCell id="15" value="" style="group" vertex="1" connectable="0" parent="23">
                    <mxGeometry x="185" y="105" width="125" height="125" as="geometry"/>
                </mxCell>
                <mxCell id="6" value="" style="whiteSpace=wrap;html=1;aspect=fixed;sketch=1;hachureGap=4;jiggle=2;curveFitting=1;fontFamily=Architects Daughter;fontSource=https%3A%2F%2Ffonts.googleapis.com%2Fcss%3Ffamily%3DArchitects%2BDaughter;fontSize=20;" vertex="1" parent="15">
                    <mxGeometry width="125" height="125" as="geometry"/>
                </mxCell>
                <mxCell id="7" value="Pod" style="text;html=1;strokeColor=none;fillColor=none;align=center;verticalAlign=middle;whiteSpace=wrap;rounded=0;sketch=1;hachureGap=4;jiggle=2;curveFitting=1;fontFamily=Architects Daughter;fontSource=https%3A%2F%2Ffonts.googleapis.com%2Fcss%3Ffamily%3DArchitects%2BDaughter;fontSize=20;" vertex="1" parent="15">
                    <mxGeometry x="32.5" width="60" height="30" as="geometry"/>
                </mxCell>
                <mxCell id="10" value="container" style="rounded=1;whiteSpace=wrap;html=1;sketch=1;hachureGap=4;jiggle=2;curveFitting=1;fontFamily=Architects Daughter;fontSource=https%3A%2F%2Ffonts.googleapis.com%2Fcss%3Ffamily%3DArchitects%2BDaughter;fontSize=20;" vertex="1" parent="15">
                    <mxGeometry x="12.5" y="95" width="100" height="20" as="geometry"/>
                </mxCell>
                <mxCell id="11" value="container" style="rounded=1;whiteSpace=wrap;html=1;sketch=1;hachureGap=4;jiggle=2;curveFitting=1;fontFamily=Architects Daughter;fontSource=https%3A%2F%2Ffonts.googleapis.com%2Fcss%3Ffamily%3DArchitects%2BDaughter;fontSize=20;" vertex="1" parent="15">
                    <mxGeometry x="12.5" y="65" width="100" height="20" as="geometry"/>
                </mxCell>
                <mxCell id="12" value="container" style="rounded=1;whiteSpace=wrap;html=1;sketch=1;hachureGap=4;jiggle=2;curveFitting=1;fontFamily=Architects Daughter;fontSource=https%3A%2F%2Ffonts.googleapis.com%2Fcss%3Ffamily%3DArchitects%2BDaughter;fontSize=20;" vertex="1" parent="15">
                    <mxGeometry x="12.5" y="35" width="100" height="20" as="geometry"/>
                </mxCell>
                <mxCell id="16" value="kublet" style="rounded=1;whiteSpace=wrap;html=1;sketch=1;hachureGap=4;jiggle=2;curveFitting=1;fontFamily=Architects Daughter;fontSource=https%3A%2F%2Ffonts.googleapis.com%2Fcss%3Ffamily%3DArchitects%2BDaughter;fontSize=20;" vertex="1" parent="23">
                    <mxGeometry x="15" y="40" width="100" height="30" as="geometry"/>
                </mxCell>
                <mxCell id="17" value="kube-proxy" style="rounded=1;whiteSpace=wrap;html=1;sketch=1;hachureGap=4;jiggle=2;curveFitting=1;fontFamily=Architects Daughter;fontSource=https%3A%2F%2Ffonts.googleapis.com%2Fcss%3Ffamily%3DArchitects%2BDaughter;fontSize=20;" vertex="1" parent="23">
                    <mxGeometry x="172.5" y="50" width="122.5" height="30" as="geometry"/>
                </mxCell>
                <mxCell id="19" value="" style="endArrow=classic;startArrow=classic;html=1;sketch=1;hachureGap=4;jiggle=2;curveFitting=1;fontFamily=Architects Daughter;fontSource=https%3A%2F%2Ffonts.googleapis.com%2Fcss%3Ffamily%3DArchitects%2BDaughter;fontSize=16;exitX=0;exitY=0.5;exitDx=0;exitDy=0;entryX=0.25;entryY=1;entryDx=0;entryDy=0;" edge="1" parent="23" source="8" target="16">
                    <mxGeometry width="50" height="50" relative="1" as="geometry">
                        <mxPoint x="5" y="130" as="sourcePoint"/>
                        <mxPoint x="55" y="80" as="targetPoint"/>
                        <Array as="points">
                            <mxPoint x="15" y="90"/>
                        </Array>
                    </mxGeometry>
                </mxCell>
                <mxCell id="20" value="" style="endArrow=classic;startArrow=classic;html=1;sketch=1;hachureGap=4;jiggle=2;curveFitting=1;fontFamily=Architects Daughter;fontSource=https%3A%2F%2Ffonts.googleapis.com%2Fcss%3Ffamily%3DArchitects%2BDaughter;fontSize=16;exitX=0.25;exitY=0;exitDx=0;exitDy=0;" edge="1" parent="23" source="7">
                    <mxGeometry width="50" height="50" relative="1" as="geometry">
                        <mxPoint x="185" y="130" as="sourcePoint"/>
                        <mxPoint x="235" y="80" as="targetPoint"/>
                    </mxGeometry>
                </mxCell>
                <mxCell id="21" value="" style="endArrow=classic;startArrow=classic;html=1;sketch=1;hachureGap=4;jiggle=2;curveFitting=1;fontFamily=Architects Daughter;fontSource=https%3A%2F%2Ffonts.googleapis.com%2Fcss%3Ffamily%3DArchitects%2BDaughter;fontSize=16;exitX=0.75;exitY=0;exitDx=0;exitDy=0;" edge="1" parent="23" source="4">
                    <mxGeometry width="50" height="50" relative="1" as="geometry">
                        <mxPoint x="125" y="120" as="sourcePoint"/>
                        <mxPoint x="175" y="70" as="targetPoint"/>
                    </mxGeometry>
                </mxCell>
                <mxCell id="22" value="" style="endArrow=classic;startArrow=classic;html=1;sketch=1;hachureGap=4;jiggle=2;curveFitting=1;fontFamily=Architects Daughter;fontSource=https%3A%2F%2Ffonts.googleapis.com%2Fcss%3Ffamily%3DArchitects%2BDaughter;fontSize=16;exitX=1;exitY=0;exitDx=0;exitDy=0;entryX=1;entryY=0.75;entryDx=0;entryDy=0;" edge="1" parent="23" source="16" target="12">
                    <mxGeometry width="50" height="50" relative="1" as="geometry">
                        <mxPoint x="135" y="80" as="sourcePoint"/>
                        <mxPoint x="185" y="30" as="targetPoint"/>
                        <Array as="points">
                            <mxPoint x="315" y="30"/>
                            <mxPoint x="325" y="150"/>
                        </Array>
                    </mxGeometry>
                </mxCell>
                <mxCell id="24" value="" style="group" vertex="1" connectable="0" parent="1">
                    <mxGeometry x="1040" y="60" width="330" height="310" as="geometry"/>
                </mxCell>
                <mxCell id="25" value="" style="rounded=1;whiteSpace=wrap;html=1;sketch=1;hachureGap=4;jiggle=2;curveFitting=1;fontFamily=Architects Daughter;fontSource=https%3A%2F%2Ffonts.googleapis.com%2Fcss%3Ffamily%3DArchitects%2BDaughter;fontSize=20;" vertex="1" parent="24">
                    <mxGeometry width="330" height="310" as="geometry"/>
                </mxCell>
                <mxCell id="26" value="worker Node" style="text;html=1;strokeColor=none;fillColor=none;align=center;verticalAlign=middle;whiteSpace=wrap;rounded=0;sketch=1;hachureGap=4;jiggle=2;curveFitting=1;fontFamily=Architects Daughter;fontSource=https%3A%2F%2Ffonts.googleapis.com%2Fcss%3Ffamily%3DArchitects%2BDaughter;fontSize=20;" vertex="1" parent="24">
                    <mxGeometry x="84" width="130" height="30" as="geometry"/>
                </mxCell>
                <mxCell id="27" value="container runtime" style="rounded=1;whiteSpace=wrap;html=1;sketch=1;hachureGap=4;jiggle=2;curveFitting=1;fontFamily=Architects Daughter;fontSource=https%3A%2F%2Ffonts.googleapis.com%2Fcss%3Ffamily%3DArchitects%2BDaughter;fontSize=20;" vertex="1" parent="24">
                    <mxGeometry x="35" y="270" width="260" height="30" as="geometry"/>
                </mxCell>
                <mxCell id="28" value="" style="group" vertex="1" connectable="0" parent="24">
                    <mxGeometry x="15" y="110" width="120" height="120" as="geometry"/>
                </mxCell>
                <mxCell id="29" value="" style="whiteSpace=wrap;html=1;aspect=fixed;sketch=1;hachureGap=4;jiggle=2;curveFitting=1;fontFamily=Architects Daughter;fontSource=https%3A%2F%2Ffonts.googleapis.com%2Fcss%3Ffamily%3DArchitects%2BDaughter;fontSize=20;" vertex="1" parent="28">
                    <mxGeometry width="120" height="120" as="geometry"/>
                </mxCell>
                <mxCell id="30" value="Pod" style="text;html=1;strokeColor=none;fillColor=none;align=center;verticalAlign=middle;whiteSpace=wrap;rounded=0;sketch=1;hachureGap=4;jiggle=2;curveFitting=1;fontFamily=Architects Daughter;fontSource=https%3A%2F%2Ffonts.googleapis.com%2Fcss%3Ffamily%3DArchitects%2BDaughter;fontSize=20;" vertex="1" parent="28">
                    <mxGeometry x="30" width="60" height="30" as="geometry"/>
                </mxCell>
                <mxCell id="31" value="container" style="rounded=1;whiteSpace=wrap;html=1;sketch=1;hachureGap=4;jiggle=2;curveFitting=1;fontFamily=Architects Daughter;fontSource=https%3A%2F%2Ffonts.googleapis.com%2Fcss%3Ffamily%3DArchitects%2BDaughter;fontSize=20;" vertex="1" parent="28">
                    <mxGeometry x="10" y="30" width="100" height="20" as="geometry"/>
                </mxCell>
                <mxCell id="32" value="container" style="rounded=1;whiteSpace=wrap;html=1;sketch=1;hachureGap=4;jiggle=2;curveFitting=1;fontFamily=Architects Daughter;fontSource=https%3A%2F%2Ffonts.googleapis.com%2Fcss%3Ffamily%3DArchitects%2BDaughter;fontSize=20;" vertex="1" parent="28">
                    <mxGeometry x="10" y="60" width="100" height="20" as="geometry"/>
                </mxCell>
                <mxCell id="33" value="" style="group" vertex="1" connectable="0" parent="24">
                    <mxGeometry x="185" y="105" width="125" height="125" as="geometry"/>
                </mxCell>
                <mxCell id="34" value="" style="whiteSpace=wrap;html=1;aspect=fixed;sketch=1;hachureGap=4;jiggle=2;curveFitting=1;fontFamily=Architects Daughter;fontSource=https%3A%2F%2Ffonts.googleapis.com%2Fcss%3Ffamily%3DArchitects%2BDaughter;fontSize=20;" vertex="1" parent="33">
                    <mxGeometry width="125" height="125" as="geometry"/>
                </mxCell>
                <mxCell id="35" value="Pod" style="text;html=1;strokeColor=none;fillColor=none;align=center;verticalAlign=middle;whiteSpace=wrap;rounded=0;sketch=1;hachureGap=4;jiggle=2;curveFitting=1;fontFamily=Architects Daughter;fontSource=https%3A%2F%2Ffonts.googleapis.com%2Fcss%3Ffamily%3DArchitects%2BDaughter;fontSize=20;" vertex="1" parent="33">
                    <mxGeometry x="32.5" width="60" height="30" as="geometry"/>
                </mxCell>
                <mxCell id="36" value="container" style="rounded=1;whiteSpace=wrap;html=1;sketch=1;hachureGap=4;jiggle=2;curveFitting=1;fontFamily=Architects Daughter;fontSource=https%3A%2F%2Ffonts.googleapis.com%2Fcss%3Ffamily%3DArchitects%2BDaughter;fontSize=20;" vertex="1" parent="33">
                    <mxGeometry x="12.5" y="95" width="100" height="20" as="geometry"/>
                </mxCell>
                <mxCell id="37" value="container" style="rounded=1;whiteSpace=wrap;html=1;sketch=1;hachureGap=4;jiggle=2;curveFitting=1;fontFamily=Architects Daughter;fontSource=https%3A%2F%2Ffonts.googleapis.com%2Fcss%3Ffamily%3DArchitects%2BDaughter;fontSize=20;" vertex="1" parent="33">
                    <mxGeometry x="12.5" y="65" width="100" height="20" as="geometry"/>
                </mxCell>
                <mxCell id="38" value="container" style="rounded=1;whiteSpace=wrap;html=1;sketch=1;hachureGap=4;jiggle=2;curveFitting=1;fontFamily=Architects Daughter;fontSource=https%3A%2F%2Ffonts.googleapis.com%2Fcss%3Ffamily%3DArchitects%2BDaughter;fontSize=20;" vertex="1" parent="33">
                    <mxGeometry x="12.5" y="35" width="100" height="20" as="geometry"/>
                </mxCell>
                <mxCell id="39" value="kublet" style="rounded=1;whiteSpace=wrap;html=1;sketch=1;hachureGap=4;jiggle=2;curveFitting=1;fontFamily=Architects Daughter;fontSource=https%3A%2F%2Ffonts.googleapis.com%2Fcss%3Ffamily%3DArchitects%2BDaughter;fontSize=20;" vertex="1" parent="24">
                    <mxGeometry x="15" y="40" width="100" height="30" as="geometry"/>
                </mxCell>
                <mxCell id="40" value="kube-proxy" style="rounded=1;whiteSpace=wrap;html=1;sketch=1;hachureGap=4;jiggle=2;curveFitting=1;fontFamily=Architects Daughter;fontSource=https%3A%2F%2Ffonts.googleapis.com%2Fcss%3Ffamily%3DArchitects%2BDaughter;fontSize=20;" vertex="1" parent="24">
                    <mxGeometry x="172.5" y="50" width="122.5" height="30" as="geometry"/>
                </mxCell>
                <mxCell id="41" value="" style="endArrow=classic;startArrow=classic;html=1;sketch=1;hachureGap=4;jiggle=2;curveFitting=1;fontFamily=Architects Daughter;fontSource=https%3A%2F%2Ffonts.googleapis.com%2Fcss%3Ffamily%3DArchitects%2BDaughter;fontSize=16;exitX=0;exitY=0.5;exitDx=0;exitDy=0;entryX=0.25;entryY=1;entryDx=0;entryDy=0;" edge="1" parent="24" source="31" target="39">
                    <mxGeometry width="50" height="50" relative="1" as="geometry">
                        <mxPoint x="5" y="130" as="sourcePoint"/>
                        <mxPoint x="55" y="80" as="targetPoint"/>
                        <Array as="points">
                            <mxPoint x="15" y="90"/>
                        </Array>
                    </mxGeometry>
                </mxCell>
                <mxCell id="42" value="" style="endArrow=classic;startArrow=classic;html=1;sketch=1;hachureGap=4;jiggle=2;curveFitting=1;fontFamily=Architects Daughter;fontSource=https%3A%2F%2Ffonts.googleapis.com%2Fcss%3Ffamily%3DArchitects%2BDaughter;fontSize=16;exitX=0.25;exitY=0;exitDx=0;exitDy=0;" edge="1" parent="24" source="35">
                    <mxGeometry width="50" height="50" relative="1" as="geometry">
                        <mxPoint x="185" y="130" as="sourcePoint"/>
                        <mxPoint x="235" y="80" as="targetPoint"/>
                    </mxGeometry>
                </mxCell>
                <mxCell id="43" value="" style="endArrow=classic;startArrow=classic;html=1;sketch=1;hachureGap=4;jiggle=2;curveFitting=1;fontFamily=Architects Daughter;fontSource=https%3A%2F%2Ffonts.googleapis.com%2Fcss%3Ffamily%3DArchitects%2BDaughter;fontSize=16;exitX=0.75;exitY=0;exitDx=0;exitDy=0;" edge="1" parent="24" source="29">
                    <mxGeometry width="50" height="50" relative="1" as="geometry">
                        <mxPoint x="125" y="120" as="sourcePoint"/>
                        <mxPoint x="175" y="70" as="targetPoint"/>
                    </mxGeometry>
                </mxCell>
                <mxCell id="44" value="" style="endArrow=classic;startArrow=classic;html=1;sketch=1;hachureGap=4;jiggle=2;curveFitting=1;fontFamily=Architects Daughter;fontSource=https%3A%2F%2Ffonts.googleapis.com%2Fcss%3Ffamily%3DArchitects%2BDaughter;fontSize=16;exitX=1;exitY=0;exitDx=0;exitDy=0;entryX=1;entryY=0.75;entryDx=0;entryDy=0;" edge="1" parent="24" source="39" target="38">
                    <mxGeometry width="50" height="50" relative="1" as="geometry">
                        <mxPoint x="135" y="80" as="sourcePoint"/>
                        <mxPoint x="185" y="30" as="targetPoint"/>
                        <Array as="points">
                            <mxPoint x="315" y="30"/>
                            <mxPoint x="325" y="150"/>
                        </Array>
                    </mxGeometry>
                </mxCell>
                <mxCell id="46" value="" style="rounded=1;whiteSpace=wrap;html=1;sketch=1;hachureGap=4;jiggle=2;curveFitting=1;fontFamily=Architects Daughter;fontSource=https%3A%2F%2Ffonts.googleapis.com%2Fcss%3Ffamily%3DArchitects%2BDaughter;fontSize=20;" vertex="1" parent="1">
                    <mxGeometry x="480" y="100" width="500" height="270" as="geometry"/>
                </mxCell>
                <mxCell id="47" value="Master Node" style="text;html=1;strokeColor=none;fillColor=none;align=center;verticalAlign=middle;whiteSpace=wrap;rounded=0;sketch=1;hachureGap=4;jiggle=2;curveFitting=1;fontFamily=Architects Daughter;fontSource=https%3A%2F%2Ffonts.googleapis.com%2Fcss%3Ffamily%3DArchitects%2BDaughter;fontSize=20;" vertex="1" parent="1">
                    <mxGeometry x="612" y="100" width="200" height="30" as="geometry"/>
                </mxCell>
                <mxCell id="48" value="API Server" style="rounded=1;whiteSpace=wrap;html=1;sketch=1;hachureGap=4;jiggle=2;curveFitting=1;fontFamily=Architects Daughter;fontSource=https%3A%2F%2Ffonts.googleapis.com%2Fcss%3Ffamily%3DArchitects%2BDaughter;fontSize=20;" vertex="1" parent="1">
                    <mxGeometry x="650" y="165" width="120" height="35" as="geometry"/>
                </mxCell>
                <mxCell id="49" value="scheduler" style="rounded=1;whiteSpace=wrap;html=1;sketch=1;hachureGap=4;jiggle=2;curveFitting=1;fontFamily=Architects Daughter;fontSource=https%3A%2F%2Ffonts.googleapis.com%2Fcss%3Ffamily%3DArchitects%2BDaughter;fontSize=20;" vertex="1" parent="1">
                    <mxGeometry x="780" y="240" width="120" height="35" as="geometry"/>
                </mxCell>
                <mxCell id="50" value="controller-manager" style="rounded=1;whiteSpace=wrap;html=1;sketch=1;hachureGap=4;jiggle=2;curveFitting=1;fontFamily=Architects Daughter;fontSource=https%3A%2F%2Ffonts.googleapis.com%2Fcss%3Ffamily%3DArchitects%2BDaughter;fontSize=20;" vertex="1" parent="1">
                    <mxGeometry x="510" y="232.5" width="120" height="50" as="geometry"/>
                </mxCell>
                <mxCell id="51" value="cloud-controller-manager" style="rounded=1;whiteSpace=wrap;html=1;sketch=1;hachureGap=4;jiggle=2;curveFitting=1;fontFamily=Architects Daughter;fontSource=https%3A%2F%2Ffonts.googleapis.com%2Fcss%3Ffamily%3DArchitects%2BDaughter;fontSize=20;" vertex="1" parent="1">
                    <mxGeometry x="780" y="290" width="152" height="70" as="geometry"/>
                </mxCell>
                <mxCell id="53" value="kubectl" style="rounded=1;whiteSpace=wrap;html=1;sketch=1;hachureGap=4;jiggle=2;curveFitting=1;fontFamily=Architects Daughter;fontSource=https%3A%2F%2Ffonts.googleapis.com%2Fcss%3Ffamily%3DArchitects%2BDaughter;fontSize=20;" vertex="1" parent="1">
                    <mxGeometry x="530" y="30" width="120" height="30" as="geometry"/>
                </mxCell>
                <mxCell id="54" value="UI" style="rounded=1;whiteSpace=wrap;html=1;sketch=1;hachureGap=4;jiggle=2;curveFitting=1;fontFamily=Architects Daughter;fontSource=https%3A%2F%2Ffonts.googleapis.com%2Fcss%3Ffamily%3DArchitects%2BDaughter;fontSize=20;" vertex="1" parent="1">
                    <mxGeometry x="680" y="30" width="120" height="30" as="geometry"/>
                </mxCell>
                <mxCell id="55" value="" style="endArrow=classic;html=1;sketch=1;hachureGap=4;jiggle=2;curveFitting=1;fontFamily=Architects Daughter;fontSource=https%3A%2F%2Ffonts.googleapis.com%2Fcss%3Ffamily%3DArchitects%2BDaughter;fontSize=16;entryX=0;entryY=0.75;entryDx=0;entryDy=0;exitX=0.75;exitY=0;exitDx=0;exitDy=0;" edge="1" parent="1" source="50" target="48">
                    <mxGeometry width="50" height="50" relative="1" as="geometry">
                        <mxPoint x="610" y="330" as="sourcePoint"/>
                        <mxPoint x="660" y="280" as="targetPoint"/>
                        <Array as="points">
                            <mxPoint x="600" y="190"/>
                        </Array>
                    </mxGeometry>
                </mxCell>
                <mxCell id="56" value="" style="endArrow=classic;html=1;sketch=1;hachureGap=4;jiggle=2;curveFitting=1;fontFamily=Architects Daughter;fontSource=https%3A%2F%2Ffonts.googleapis.com%2Fcss%3Ffamily%3DArchitects%2BDaughter;fontSize=16;entryX=1;entryY=0.75;entryDx=0;entryDy=0;" edge="1" parent="1" target="48">
                    <mxGeometry width="50" height="50" relative="1" as="geometry">
                        <mxPoint x="810" y="240" as="sourcePoint"/>
                        <mxPoint x="860" y="190" as="targetPoint"/>
                        <Array as="points">
                            <mxPoint x="810" y="190"/>
                        </Array>
                    </mxGeometry>
                </mxCell>
                <mxCell id="57" value="etcd" style="shape=cylinder3;whiteSpace=wrap;html=1;boundedLbl=1;backgroundOutline=1;size=15;sketch=1;hachureGap=4;jiggle=2;curveFitting=1;fontFamily=Architects Daughter;fontSource=https%3A%2F%2Ffonts.googleapis.com%2Fcss%3Ffamily%3DArchitects%2BDaughter;fontSize=20;" vertex="1" parent="1">
                    <mxGeometry x="682" y="390" width="60" height="80" as="geometry"/>
                </mxCell>
                <mxCell id="58" value="" style="endArrow=classic;html=1;sketch=1;hachureGap=4;jiggle=2;curveFitting=1;fontFamily=Architects Daughter;fontSource=https%3A%2F%2Ffonts.googleapis.com%2Fcss%3Ffamily%3DArchitects%2BDaughter;fontSize=16;exitX=0.5;exitY=1;exitDx=0;exitDy=0;" edge="1" parent="1" source="48" target="57">
                    <mxGeometry width="50" height="50" relative="1" as="geometry">
                        <mxPoint x="680" y="350" as="sourcePoint"/>
                        <mxPoint x="730" y="300" as="targetPoint"/>
                    </mxGeometry>
                </mxCell>
                <mxCell id="59" value="cloud provider API" style="ellipse;shape=cloud;whiteSpace=wrap;html=1;sketch=1;hachureGap=4;jiggle=2;curveFitting=1;fontFamily=Architects Daughter;fontSource=https%3A%2F%2Ffonts.googleapis.com%2Fcss%3Ffamily%3DArchitects%2BDaughter;fontSize=20;" vertex="1" parent="1">
                    <mxGeometry x="840" y="410" width="160" height="80" as="geometry"/>
                </mxCell>
                <mxCell id="60" value="" style="endArrow=classic;html=1;sketch=1;hachureGap=4;jiggle=2;curveFitting=1;fontFamily=Architects Daughter;fontSource=https%3A%2F%2Ffonts.googleapis.com%2Fcss%3Ffamily%3DArchitects%2BDaughter;fontSize=16;exitX=1;exitY=1;exitDx=0;exitDy=-15;exitPerimeter=0;entryX=0.16;entryY=0.55;entryDx=0;entryDy=0;entryPerimeter=0;" edge="1" parent="1" source="57" target="59">
                    <mxGeometry width="50" height="50" relative="1" as="geometry">
                        <mxPoint x="770" y="550" as="sourcePoint"/>
                        <mxPoint x="820" y="500" as="targetPoint"/>
                    </mxGeometry>
                </mxCell>
                <mxCell id="61" value="" style="endArrow=classic;html=1;sketch=1;hachureGap=4;jiggle=2;curveFitting=1;fontFamily=Architects Daughter;fontSource=https%3A%2F%2Ffonts.googleapis.com%2Fcss%3Ffamily%3DArchitects%2BDaughter;fontSize=16;exitX=0.75;exitY=1;exitDx=0;exitDy=0;entryX=0;entryY=0;entryDx=0;entryDy=0;" edge="1" parent="1" source="53" target="48">
                    <mxGeometry width="50" height="50" relative="1" as="geometry">
                        <mxPoint x="550" y="180" as="sourcePoint"/>
                        <mxPoint x="600" y="130" as="targetPoint"/>
                        <Array as="points">
                            <mxPoint x="610" y="130"/>
                        </Array>
                    </mxGeometry>
                </mxCell>
                <mxCell id="62" value="" style="endArrow=classic;html=1;sketch=1;hachureGap=4;jiggle=2;curveFitting=1;fontFamily=Architects Daughter;fontSource=https%3A%2F%2Ffonts.googleapis.com%2Fcss%3Ffamily%3DArchitects%2BDaughter;fontSize=16;exitX=0.75;exitY=1;exitDx=0;exitDy=0;entryX=0.75;entryY=0;entryDx=0;entryDy=0;" edge="1" parent="1" source="54" target="48">
                    <mxGeometry width="50" height="50" relative="1" as="geometry">
                        <mxPoint x="820" y="190" as="sourcePoint"/>
                        <mxPoint x="870" y="140" as="targetPoint"/>
                        <Array as="points">
                            <mxPoint x="780" y="130"/>
                        </Array>
                    </mxGeometry>
                </mxCell>
                <mxCell id="63" value="" style="endArrow=classic;html=1;sketch=1;hachureGap=4;jiggle=2;curveFitting=1;fontFamily=Architects Daughter;fontSource=https%3A%2F%2Ffonts.googleapis.com%2Fcss%3Ffamily%3DArchitects%2BDaughter;fontSize=16;exitX=0;exitY=0.5;exitDx=0;exitDy=0;entryX=0;entryY=0.25;entryDx=0;entryDy=0;" edge="1" parent="1" source="16" target="48">
                    <mxGeometry width="50" height="50" relative="1" as="geometry">
                        <mxPoint x="20" y="340" as="sourcePoint"/>
                        <mxPoint x="30" y="390" as="targetPoint"/>
                        <Array as="points">
                            <mxPoint x="40" y="115"/>
                            <mxPoint x="40" y="440"/>
                            <mxPoint x="420" y="440"/>
                            <mxPoint x="420" y="174"/>
                        </Array>
                    </mxGeometry>
                </mxCell>
                <mxCell id="64" value="" style="endArrow=classic;html=1;sketch=1;hachureGap=4;jiggle=2;curveFitting=1;fontFamily=Architects Daughter;fontSource=https%3A%2F%2Ffonts.googleapis.com%2Fcss%3Ffamily%3DArchitects%2BDaughter;fontSize=16;entryX=1;entryY=0.25;entryDx=0;entryDy=0;exitX=0;exitY=0.5;exitDx=0;exitDy=0;" edge="1" parent="1" source="39" target="48">
                    <mxGeometry width="50" height="50" relative="1" as="geometry">
                        <mxPoint x="1080" y="230" as="sourcePoint"/>
                        <mxPoint x="1130" y="180" as="targetPoint"/>
                        <Array as="points">
                            <mxPoint x="830" y="115"/>
                            <mxPoint x="830" y="174"/>
                        </Array>
                    </mxGeometry>
                </mxCell>
            </root>
        </mxGraphModel>
    </diagram>
</mxfile>